<?xml version="1.0" encoding="UTF-8" standalone="no"?>
<!-- Created with Inkscape (http://www.inkscape.org/) -->

<svg
   xmlns:dc="http://purl.org/dc/elements/1.1/"
   xmlns:cc="http://creativecommons.org/ns#"
   xmlns:rdf="http://www.w3.org/1999/02/22-rdf-syntax-ns#"
   xmlns:svg="http://www.w3.org/2000/svg"
   xmlns="http://www.w3.org/2000/svg"
   xmlns:sodipodi="http://sodipodi.sourceforge.net/DTD/sodipodi-0.dtd"
   xmlns:inkscape="http://www.inkscape.org/namespaces/inkscape"
   width="256"
   height="256"
   id="svg2985"
   version="1.1"
   inkscape:version="0.48.2 r9819"
   sodipodi:docname="1sq2mixi_icon.svg"
   inkscape:export-filename="/home/ht11a018/Aptana Studio 3 Workspace/Fsq2mixi/resources/1sq2mixi_icon.png"
   inkscape:export-xdpi="180"
   inkscape:export-ydpi="180">
  <defs
     id="defs2987">
    <filter
       color-interpolation-filters="sRGB"
       inkscape:collect="always"
       id="filter3926-9">
      <feGaussianBlur
         inkscape:collect="always"
         stdDeviation="1.1087942"
         id="feGaussianBlur3928-1" />
    </filter>
  </defs>
  <sodipodi:namedview
     id="base"
     pagecolor="#ffffff"
     bordercolor="#666666"
     borderopacity="1.0"
     inkscape:pageopacity="0.0"
     inkscape:pageshadow="2"
     inkscape:zoom="0.61871843"
     inkscape:cx="-194.10054"
     inkscape:cy="49.035889"
     inkscape:current-layer="layer4"
     showgrid="false"
     inkscape:grid-bbox="true"
     inkscape:document-units="px"
     inkscape:window-width="1278"
     inkscape:window-height="722"
     inkscape:window-x="0"
     inkscape:window-y="25"
     inkscape:window-maximized="1"
     borderlayer="true">
    <inkscape:grid
       type="xygrid"
       id="grid3821"
       empspacing="5"
       visible="true"
       enabled="true"
       snapvisiblegridlinesonly="true" />
  </sodipodi:namedview>
  <metadata
     id="metadata2990">
    <rdf:RDF>
      <cc:Work
         rdf:about="">
        <dc:format>image/svg+xml</dc:format>
        <dc:type
           rdf:resource="http://purl.org/dc/dcmitype/StillImage" />
        <dc:title></dc:title>
      </cc:Work>
    </rdf:RDF>
  </metadata>
  <g
     inkscape:groupmode="layer"
     id="layer3"
     inkscape:label="background"
     style="display:inline">
    <rect
       style="color:#000000;fill:#ffffff;fill-opacity:1;fill-rule:nonzero;stroke:none;stroke-width:9.69999981;marker:none;visibility:visible;display:inline;overflow:visible;enable-background:accumulate"
       id="rect4017"
       width="262.63968"
       height="269.10464"
       x="-4"
       y="-8.2559204" />
  </g>
  <g
     id="layer1"
     inkscape:label="main-layer"
     inkscape:groupmode="layer"
     transform="translate(0,208)"
     style="display:inline">
    <text
       sodipodi:linespacing="125%"
       id="text3000"
       y="-146.28572"
       x="17.714285"
       style="font-size:40px;font-style:normal;font-variant:normal;font-weight:normal;font-stretch:normal;line-height:125%;letter-spacing:0px;word-spacing:0px;writing-mode:tb-rl;fill:#000000;fill-opacity:1;stroke:none;font-family:'VL Pゴシック';-inkscape-font-specification:'VL Pゴシック'"
       xml:space="preserve"><tspan
         y="17.714285"
         x="-146.28572"
         id="tspan3002"
         sodipodi:role="line" /></text>
    <g
       id="text2985"
       style="font-size:40px;font-style:normal;font-variant:normal;font-weight:normal;font-stretch:normal;line-height:125%;letter-spacing:0px;word-spacing:0px;writing-mode:tb-rl;fill:#ffffff;fill-opacity:1;stroke:#d49c2d;stroke-width:7.99074888;stroke-miterlimit:4;stroke-opacity:1;stroke-dasharray:none;font-family:'M+ 2c';-inkscape-font-specification:'M+ 2c'"
       transform="matrix(0.61579303,0,0,0.61579303,288.17173,-362.35525)">
      <path
         sodipodi:nodetypes="cccccccccsccsccccccscccscccc"
         inkscape:connector-curvature="0"
         id="path2990"
         style="font-size:200px;fill:#ffffff;fill-opacity:1;stroke:#d49c2d;stroke-width:7.99074888;stroke-miterlimit:4;stroke-opacity:1;stroke-dasharray:none;font-family:'M+ 2c';-inkscape-font-specification:'M+ 2c'"
         d="m -215.52232,535.93362 0.45357,10.2 0.45357,0 c 8.61782,-10.7999 18.89876,-16.19989 30.84286,-16.2 7.25707,1.1e-4 13.15349,1.46678 17.68928,4.4 4.53564,2.8001 8.2398,7.53343 11.1125,14.2 l 0.45357,0 c 8.61776,-12.3999 19.65466,-18.59989 33.11072,-18.6 12.0951,1.1e-4 20.86414,3.06677 26.307141,9.2 5.442699,6.13343 8.164127,16.40008 8.164286,30.8 l 0,66 -17.008927,0 0,-62 c -1.4e-4,-12.39992 -1.66324,-20.79991 -4.98929,-25.2 -3.17513,-4.53324 -8.84476,-6.7999 -17.00893,-6.8 -5.59415,10e-5 -11.1882,2.66676 -16.78214,8 -5.44296,5.20009 -8.16437,10.60008 -8.16428,16.2 l 0,69.8 -17.00893,0 0,-62 c -8e-5,-12.39992 -1.66317,-20.79991 -4.98929,-25.2 -3.32625,-4.53324 -8.9959,-6.7999 -17.00893,-6.8 -5.5941,10e-5 -11.11254,2.66676 -16.55535,8 -5.4429,5.20009 -8.16432,10.60008 -8.16429,16.2 l 0,69.8 -17.4625,0 0,-100 c 5.80481,-1.51523 8.45966,-2.02031 16.55536,0" />
    </g>
  </g>
  <g
     inkscape:groupmode="layer"
     id="layer5"
     inkscape:label="2line"
     style="display:inline">
    <path
       sodipodi:nodetypes="ccccccccccccc"
       inkscape:connector-curvature="0"
       id="path2998"
       style="font-size:100px;font-style:normal;font-variant:normal;font-weight:normal;font-stretch:normal;line-height:125%;letter-spacing:0px;word-spacing:0px;writing-mode:tb-rl;fill:#c8c8c8;fill-opacity:0.78431373;stroke:none;display:inline;font-family:'M+ 2p';-inkscape-font-specification:'M+ 2p'"
       d="m 171.64043,112.0456 c -10.05366,-2.67751 -35.8301,-3.4576 -49.32936,-2.34029 l 3.13825,-13.25318 c 37.12027,4.7582 39.60635,6.87335 52.80811,10.38928 10.86587,2.89397 17.92131,6.65126 21.16633,11.27189 3.29474,4.56567 2.49517,9.54343 -2.39868,14.93329 -17.82957,16.21612 -40.65856,15.44583 -77.89308,33.43539 -55.152063,29.81752 11.98179,39.77983 11.98179,39.77983 L 117.10603,221.689 c -79.340601,-31.42304 -41.480763,-57.78599 41.4691,-79.21265 12.66172,-3.38937 21.16495,-7.4765 25.50969,-12.26143 3.54553,-3.90488 4.26197,-7.40222 2.14929,-10.492 -2.11288,-3.08972 -6.97742,-5.64882 -14.59368,-7.67732" />
  </g>
  <g
     inkscape:groupmode="layer"
     id="layer4"
     inkscape:label="fourquare_logomark"
     style="display:inline">
    <text
       xml:space="preserve"
       style="font-size:480.07232666px;font-style:normal;font-variant:normal;font-weight:normal;font-stretch:normal;line-height:125%;letter-spacing:0px;word-spacing:0px;writing-mode:lr-tb;fill:#00ff00;fill-opacity:1;stroke:none;font-family:'M+ 2p';-inkscape-font-specification:'M+ 2p'"
       x="8.1238804"
       y="212.87505"
       id="text3005"
       sodipodi:linespacing="125%"
       transform="matrix(1.1523477,0.03660504,-0.12554171,0.86380573,0,0)"><tspan
         sodipodi:role="line"
         id="tspan3007"
         x="8.1238804"
         y="212.87505"
         style="font-size:255.91726685px;letter-spacing:-25.48202133px">!</tspan></text>
    <g
       style="display:inline"
       id="g3959"
       transform="matrix(0.51912163,0,0,0.51912163,521.92641,203.20379)">
      <g
         id="g4010"
         transform="matrix(0.94965236,0,0,0.94965236,4.4376701,10.652871)">
        <rect
           transform="matrix(0.70710678,0.70710678,-0.70710678,0.70710678,0,0)"
           y="245.52486"
           x="-708.80811"
           height="127.97855"
           width="127.97855"
           id="rect3823"
           style="font-size:40px;font-style:normal;font-variant:normal;font-weight:normal;font-stretch:normal;line-height:125%;letter-spacing:0px;word-spacing:0px;writing-mode:tb-rl;color:#000000;fill:#2d86c7;fill-opacity:0.96862745;fill-rule:nonzero;stroke:none;stroke-width:0;marker:none;visibility:visible;display:inline;overflow:visible;enable-background:accumulate;font-family:'VL Pゴシック';-inkscape-font-specification:'VL Pゴシック'"
           ry="15.503117" />
        <rect
           transform="matrix(1.1186081,1.1186081,-1.1186081,1.1186081,301.47424,290.82323)"
           y="158.22527"
           x="-714.14233"
           height="84.378006"
           width="84.378006"
           id="rect3823-1"
           style="font-size:40px;font-style:normal;font-variant:normal;font-weight:normal;font-stretch:normal;line-height:125%;letter-spacing:0px;word-spacing:0px;writing-mode:tb-rl;opacity:0.09491523;color:#000000;fill:#000000;fill-opacity:0.96862745;fill-rule:nonzero;stroke:none;stroke-width:0;marker:none;visibility:visible;display:inline;overflow:visible;filter:url(#filter3926-9);enable-background:accumulate;font-family:'VL Pゴシック';-inkscape-font-specification:'VL Pゴシック'"
           ry="10.221417" />
        <g
           transform="matrix(1.4634189,-0.60081061,0.60081061,1.4634189,305.61393,-392.77503)"
           style="font-size:40px;font-style:normal;font-variant:normal;font-weight:normal;font-stretch:normal;line-height:125%;letter-spacing:0px;word-spacing:0px;writing-mode:tb-rl;fill:#000000;fill-opacity:1;stroke:none;font-family:'VL Pゴシック';-inkscape-font-specification:'VL Pゴシック'"
           id="text3952">
          <path
             d="m -645.4831,-160.80484 24.17707,41.83201 c 0,0 34.32136,-12.42498 126.6362,-47.04547 l 0.57637,-10.97977 -121.23833,43.47354 -14.37541,-35.16479"
             id="path3957"
             inkscape:connector-curvature="0"
             sodipodi:nodetypes="cccccc"
             style="fill:#ffffff" />
        </g>
        <path
           sodipodi:type="arc"
           style="color:#000000;fill:#b0d52f;fill-opacity:1;fill-rule:nonzero;stroke:none;stroke-width:0;marker:none;visibility:visible;display:inline;overflow:visible;enable-background:accumulate"
           id="path3950"
           sodipodi:cx="-734.57141"
           sodipodi:cy="-184.28572"
           sodipodi:rx="19.714285"
           sodipodi:ry="19.714285"
           d="m -714.85713,-184.28572 c 0,10.8879 -8.82638,19.71428 -19.71428,19.71428 -10.8879,0 -19.71429,-8.82638 -19.71429,-19.71428 0,-10.8879 8.82639,-19.71429 19.71429,-19.71429 10.8879,0 19.71428,8.82639 19.71428,19.71429 z"
           transform="matrix(2.4302433,0,0,2.4302433,1033.0823,176.86384)" />
      </g>
    </g>
  </g>
</svg>
